<svg xmlns="http://www.w3.org/2000/svg" width="1200" height="418" viewBox="0 0 1200 418" fill="none"><path opacity="0.24" fill-rule="evenodd" clip-rule="evenodd" d="M456.232 101.185C455.678 196.776 333.158 229.187 258.088 288.37C183.981 346.794 124.007 458.555 32.5809 435.178C-58.4962 411.89 -55.8182 284.729 -93.3091 198.521C-127.577 119.725 -194.148 49.1123 -171.343 -33.7314C-144.085 -132.753 -72.5434 -234.037 29.337 -247.021C126.735 -259.434 184.186 -150.799 260.271 -88.7386C334.433 -28.247 456.786 5.48264 456.232 101.185Z" fill="#F47C7C"></path><path opacity="0.64" fill-rule="evenodd" clip-rule="evenodd" d="M1617.23 547.185C1616.68 642.776 1494.16 675.187 1419.09 734.37C1344.98 792.794 1285.01 904.555 1193.58 881.178C1102.5 857.89 1105.18 730.729 1067.69 644.521C1033.42 565.725 966.852 495.112 989.657 412.269C1016.91 313.247 1088.46 211.963 1190.34 198.979C1287.73 186.566 1345.19 295.201 1421.27 357.261C1495.43 417.753 1617.79 451.483 1617.23 547.185Z" fill="#51AC8F"></path></svg>